<svg xmlns="http://www.w3.org/2000/svg" width="41.501" height="41.539" viewBox="0 0 41.501 41.539">
  <g id="noun-warranty-4780476" transform="translate(-19.2 -19.125)">
    <path id="Path_40" data-name="Path 40" d="M41.2,24.176,24.3,30.506a.6.6,0,0,0-.4.674,37.652,37.652,0,0,0,2.829,13.4,26.915,26.915,0,0,0,6.2,9.092A24.512,24.512,0,0,0,41.27,59c.067,0,.135.067.2.067a.247.247,0,0,0,.2-.067,24.512,24.512,0,0,0,8.351-5.321,26.915,26.915,0,0,0,6.2-9.092,37.652,37.652,0,0,0,2.829-13.4.741.741,0,0,0-.4-.674L41.742,24.176A.744.744,0,0,0,41.2,24.176Zm16.5,7.409a37.2,37.2,0,0,1-2.694,12.46,27.071,27.071,0,0,1-5.86,8.688,23.443,23.443,0,0,1-7.678,4.917,23.443,23.443,0,0,1-7.678-4.917,25.369,25.369,0,0,1-5.86-8.688,37.2,37.2,0,0,1-2.694-12.46l16.232-6.062Z" transform="translate(-1.528 -1.632)" fill="#fff"/>
    <path id="Path_41" data-name="Path 41" d="M60.284,26.719,40.213,19.176a.575.575,0,0,0-.471,0L19.6,26.719a.589.589,0,0,0-.4.606,43.438,43.438,0,0,0,3.165,17.04,30.325,30.325,0,0,0,7.072,10.17,26.177,26.177,0,0,0,10.372,6.129h.269a26.177,26.177,0,0,0,10.372-6.129,30.325,30.325,0,0,0,7.072-10.17,42.261,42.261,0,0,0,3.165-17.04A.524.524,0,0,0,60.284,26.719ZM49.575,53.524a25.569,25.569,0,0,1-9.631,5.792,25.07,25.07,0,0,1-9.631-5.792c-4.445-4.176-9.7-11.988-9.833-25.728l19.464-7.274L59.408,27.8C59.274,41.536,54.02,49.349,49.575,53.524Z" fill="#fff"/>
    <path id="Path_42" data-name="Path 42" d="M45.145,50.182a1.3,1.3,0,0,0,1.886,0l9.092-9.092A1.333,1.333,0,1,0,54.238,39.2l-8.149,8.082-3.1-3.1A1.333,1.333,0,1,0,41.1,46.074Z" transform="translate(-7.02 -6.424)" fill="#fff"/>
  </g>
</svg>
