<svg xmlns="http://www.w3.org/2000/svg" width="35.266" height="47.783" viewBox="0 0 35.266 47.783">
  <g id="noun-quality-5814832" transform="translate(-192.969 -83.997)">
    <path id="Path_33" data-name="Path 33" d="M202.155,574.366a.919.919,0,0,1-.814-.494l-2.361-4.523-4.757,1.845a.919.919,0,0,1-1.195-1.18L199,554.146a.919.919,0,1,1,1.72.647l-5.247,13.945,3.608-1.4a.919.919,0,0,1,1.149.431l1.79,3.43,4.9-13.03a.919.919,0,0,1,1.72.647l-5.628,14.953a.919.919,0,0,1-.8.594C202.192,574.366,202.173,574.366,202.155,574.366Z" transform="translate(0 -442.587)" fill="#fff"/>
    <path id="Path_34" data-name="Path 34" d="M539.6,574.354h-.057a.919.919,0,0,1-.8-.594l-5.628-14.953a.92.92,0,0,1,1.723-.647l4.9,13.029,1.79-3.43a.919.919,0,0,1,1.149-.431l3.606,1.4-5.246-13.944a.92.92,0,0,1,1.723-.647L548.728,570a.919.919,0,0,1-1.192,1.18l-4.757-1.845-2.363,4.523A.919.919,0,0,1,539.6,574.354Z" transform="translate(-320.552 -442.574)" fill="#fff"/>
    <path id="Path_35" data-name="Path 35" d="M337.181,219.131a9.921,9.921,0,1,1,9.921-9.922A9.932,9.932,0,0,1,337.181,219.131Zm0-18a8.083,8.083,0,1,0,8.083,8.081,8.092,8.092,0,0,0-8.083-8.081Z" transform="translate(-126.579 -108.671)" fill="#fff"/>
    <path id="Path_36" data-name="Path 36" d="M228.46,117.081a16.542,16.542,0,1,1,11.7-4.845A16.54,16.54,0,0,1,228.46,117.081Zm0-31.246a14.7,14.7,0,1,0,14.7,14.7A14.719,14.719,0,0,0,228.46,85.835Z" transform="translate(-17.858)" fill="#fff"/>
    <path id="Path_37" data-name="Path 37" d="M395.062,264.583a.919.919,0,0,1-.428-.105l-3.087-1.624-3.087,1.624a.919.919,0,0,1-1.335-.969l.59-3.438-2.5-2.435a.919.919,0,0,1,.509-1.567l3.452-.5,1.544-3.128a.919.919,0,0,1,1.648,0l1.544,3.128,3.452.5a.919.919,0,0,1,.509,1.567l-2.5,2.435.592,3.438a.919.919,0,0,1-.906,1.074Zm-3.515-3.686a.923.923,0,0,1,.428.106l1.869.982-.357-2.08a.919.919,0,0,1,.264-.813l1.511-1.473-2.088-.3a.919.919,0,0,1-.689-.5l-.938-1.892-.934,1.891a.919.919,0,0,1-.689.5l-2.088.3,1.511,1.473a.919.919,0,0,1,.264.813l-.361,2.081,1.869-.98A.923.923,0,0,1,391.547,260.9Z" transform="translate(-180.945 -158.285)" fill="#fff"/>
  </g>
</svg>
